<?xml version="1.0" encoding="UTF-8" standalone="no"?>
<!-- Created with Inkscape (http://www.inkscape.org/) -->

<svg
   width="135.09352mm"
   height="175.79823mm"
   viewBox="0 0 135.09352 175.79823"
   version="1.1"
   id="svg1"
   xml:space="preserve"
   inkscape:version="1.4.2 (f4327f4, 2025-05-13)"
   sodipodi:docname="arrow.svg"
   xmlns:inkscape="http://www.inkscape.org/namespaces/inkscape"
   xmlns:sodipodi="http://sodipodi.sourceforge.net/DTD/sodipodi-0.dtd"
   xmlns:xlink="http://www.w3.org/1999/xlink"
   xmlns="http://www.w3.org/2000/svg"
   xmlns:svg="http://www.w3.org/2000/svg"><sodipodi:namedview
     id="namedview1"
     pagecolor="#ffffff"
     bordercolor="#000000"
     borderopacity="0.25"
     inkscape:showpageshadow="2"
     inkscape:pageopacity="0.0"
     inkscape:pagecheckerboard="0"
     inkscape:deskcolor="#d1d1d1"
     inkscape:document-units="mm"
     inkscape:zoom="1.2674155"
     inkscape:cx="244.59225"
     inkscape:cy="185.0222"
     inkscape:window-width="1366"
     inkscape:window-height="705"
     inkscape:window-x="1912"
     inkscape:window-y="-8"
     inkscape:window-maximized="1"
     inkscape:current-layer="layer1" /><defs
     id="defs1"><linearGradient
       id="linearGradient5"
       inkscape:collect="always"><stop
         style="stop-color:#e60076;stop-opacity:0;"
         offset="0"
         id="stop7" /><stop
         style="stop-color:#e60076;stop-opacity:0.25142857;"
         offset="0.55930746"
         id="stop5" /><stop
         style="stop-color:#5900e6;stop-opacity:0;"
         offset="1"
         id="stop6" /></linearGradient><linearGradient
       inkscape:collect="always"
       xlink:href="#linearGradient5"
       id="linearGradient6"
       x1="38.495819"
       y1="184.10187"
       x2="158.55875"
       y2="101.85114"
       gradientUnits="userSpaceOnUse" /><linearGradient
       id="SVGv0eJMcLD"
       x1="286.24564"
       x2="436.12283"
       y1="54.58284"
       y2="176.54007"
       gradientTransform="scale(1.1280932,0.88645161)"
       gradientUnits="userSpaceOnUse"><stop
         offset="21%"
         stop-color="#f15a24"
         id="stop1" /><stop
         offset="68.41%"
         stop-color="#fbb03b"
         id="stop2" /></linearGradient><linearGradient
       id="SVGZg73ocNv"
       x1="167.65538"
       x2="17.744331"
       y1="218.14824"
       y2="96.111168"
       gradientTransform="scale(1.1278387,0.88665162)"
       gradientUnits="userSpaceOnUse"><stop
         offset="21%"
         stop-color="#ed1e79"
         id="stop3" /><stop
         offset="89.29%"
         stop-color="#522785"
         id="stop4" /></linearGradient><clipPath
       clipPathUnits="userSpaceOnUse"
       id="clipPath1"><rect
         style="fill:#330651;stroke-width:0.87571"
         id="rect2"
         width="134.96848"
         height="122.72449"
         x="31.520334"
         y="61.99173"
         ry="0" /></clipPath></defs><g
     inkscape:label="Capa 1"
     inkscape:groupmode="layer"
     id="layer1"
     transform="translate(-31.398046,-61.966403)"><path
       style="opacity:0.832776;fill:url(#linearGradient6);stroke:none;stroke-width:0.327298"
       d="m 39.033912,221.78679 c 0,0 -1.643437,1.18692 0.91302,2.46515 2.556456,1.27822 44.6467,13.5127 44.6467,13.5127 0,0 1.36953,0 1.55213,-1.18694 0.18261,-1.18692 -0.63911,-36.4295 -0.63911,-36.4295 0,0 0.0913,-1.09563 -1.46083,-0.91302 l -17.164787,8.21719 c 0,0 -24.377645,-16.16047 -15.612649,-35.5165 0,0 1.643437,-13.51272 34.329566,-4.38251 0,0 24.834158,7.12157 40.720708,-11.32146 0,0 12.05188,-12.96489 0.18261,-39.62509 0,0 -11.50405,-26.477584 11.32146,-29.764457 0,0 10.22583,-0.913021 24.83415,10.408433 0,0 1.27823,0.502161 1.64344,-1.004323 l 2.19124,-24.012437 c 0,0 -29.76446,-22.095095 -55.32903,-1.460833 0,0 -18.443018,16.616972 -8.94761,40.903317 0,0 14.60833,30.67748 -13.877908,34.32957 0,0 -10.946968,-2.52477 -19.903843,-6.02594 0,0 -25.564572,-5.66073 -35.7904,23.92113 0,0 -9.312808,25.74719 23.008115,48.75531 z"
       id="path1"
       sodipodi:nodetypes="cscscccccccccccccccccc"
       clip-path="url(#clipPath1)" /><circle
       style="opacity:0.38796;fill:none;stroke:#9211e7;stroke-width:0.590592;stroke-dasharray:none;stroke-opacity:1"
       id="path2-4"
       cx="140.72726"
       cy="137.83035"
       r="6.1191907" /><circle
       style="opacity:0.38796;fill:none;stroke:#9211e7;stroke-width:0.753685;stroke-dasharray:none;stroke-opacity:1"
       id="path2-4-3"
       cx="155.02902"
       cy="146.98155"
       r="7.8090158" /><circle
       style="opacity:0.38796;fill:none;stroke:#9211e7;stroke-width:0.413908;stroke-dasharray:none;stroke-opacity:1"
       id="path2-4-3-8"
       cx="138.03394"
       cy="152.08676"
       r="4.2885466" /><circle
       style="opacity:0.274248;fill:none;stroke:#e71179;stroke-width:0.623805;stroke-dasharray:none;stroke-opacity:1"
       id="path2-8-6"
       cx="42.406586"
       cy="123.51036"
       r="6.4633021" /><circle
       style="opacity:0.274248;fill:none;stroke:#e71179;stroke-width:0.406347;stroke-dasharray:none;stroke-opacity:1"
       id="path2-8-6-7"
       cx="92.432251"
       cy="177.76936"
       r="4.2102017" /><circle
       style="opacity:0.274248;fill:none;stroke:#e71179;stroke-width:0.229663;stroke-dasharray:none;stroke-opacity:1"
       id="path2-8-6-7-8"
       cx="104.80077"
       cy="175.85037"
       r="2.3795578" /><circle
       style="opacity:0.274248;fill:none;stroke:#e71179;stroke-width:0.379165;stroke-dasharray:none;stroke-opacity:1"
       id="path2-8-6-2"
       cx="39.749523"
       cy="140.45491"
       r="3.9285643" /><circle
       style="opacity:0.274248;fill:none;stroke:#e71179;stroke-width:0.854854;stroke-dasharray:none;stroke-opacity:1"
       id="path2-8-6-2-5"
       cx="61.673683"
       cy="124.59372"
       r="8.8572206" /><g
       id="g13"
       transform="matrix(0.06710693,0.020482,-0.020482,0.06710693,71.317021,125.68123)"
       style="opacity:0.615385"><path
         fill="url(#SVGv0eJMcLD)"
         d="m 387.644,0 c -28.621,0 -59.822,14.667 -92.8,43.555 -15.644,13.69 -29.156,28.356 -39.287,40.09 l 0.089,0.088 v -0.089 c 0,0 15.998,17.423 33.688,36.09 9.511,-11.29 23.2,-26.667 38.932,-40.534 29.335,-25.689 48.444,-31.111 59.378,-31.111 41.157,0 74.579,32.622 74.579,72.711 0,39.822 -33.51,72.444 -74.579,72.711 -1.867,0 -4.267,-0.267 -7.29,-0.889 12.001,5.156 24.89,8.89 37.158,8.89 75.376,0 90.132,-49.156 91.11,-52.712 C 510.844,139.822 512,130.4 512,120.711 512,54.222 456.178,0 387.644,0"
         id="path4"
         style="fill:url(#SVGv0eJMcLD)" /><path
         fill="url(#SVGZg73ocNv)"
         d="m 124.356,241.778 c 28.622,0 59.822,-14.667 92.8,-43.556 15.644,-13.689 29.156,-28.355 39.287,-40.088 l -0.089,-0.09 v 0.09 c 0,0 -15.998,-17.423 -33.688,-36.09 -9.51,11.29 -23.2,26.667 -38.933,40.534 -29.333,25.689 -48.444,31.11 -59.377,31.11 -41.156,-0.088 -74.578,-32.71 -74.578,-72.8 0,-39.821 33.51,-72.443 74.578,-72.71 1.866,0 4.266,0.267 7.288,0.889 -12,-5.156 -24.888,-8.89 -37.155,-8.89 C 19.111,40.177 4.444,89.333 3.378,92.8 A 117.4,117.4 0 0 0 0,120.89 c 0,66.667 55.822,120.89 124.356,120.89"
         id="path5"
         style="fill:url(#SVGZg73ocNv)" /><path
         fill="#29abe2"
         d="M 417.334,200.444 C 378.754,199.467 338.667,169.067 330.488,161.511 309.334,141.956 260.532,89.067 256.712,84.889 220.978,44.8 172.533,0 124.356,0 h -0.178 C 65.689,0.267 16.534,39.911 3.378,92.8 4.356,89.333 23.645,39.2 94.4,40.978 c 38.578,0.978 78.845,31.822 87.111,39.378 21.156,19.555 69.957,72.444 73.779,76.622 35.732,40 84.177,84.8 132.354,84.8 h 0.178 c 58.489,-0.266 107.733,-39.911 120.8,-92.8 -1.067,3.466 -20.445,53.155 -91.288,51.466"
         id="path6" /></g><circle
       style="fill:#330651;stroke-width:0.866"
       id="path7"
       cx="136.19466"
       cy="99.751633"
       r="15.448104" /><text
       xml:space="preserve"
       style="font-weight:bold;font-size:21.0401px;font-family:Calibri;-inkscape-font-specification:'Calibri Bold';text-align:start;writing-mode:lr-tb;direction:ltr;text-anchor:start;fill:#ffffff;stroke-width:5.7388"
       x="130.58533"
       y="106.44481"
       id="text7"><tspan
         sodipodi:role="line"
         id="tspan7"
         style="fill:#ffffff;stroke-width:5.7388"
         x="130.58533"
         y="106.44481">1</tspan></text></g></svg>
